<?xml version="1.0" encoding="utf-8"?>
<!-- Generator: Adobe Illustrator 26.4.1, SVG Export Plug-In . SVG Version: 6.00 Build 0)  -->
<svg version="1.1" id="Camada_1" xmlns="http://www.w3.org/2000/svg" xmlns:xlink="http://www.w3.org/1999/xlink" x="0px" y="0px"
	 viewBox="0 0 150 150" style="enable-background:new 0 0 150 150;" xml:space="preserve">
<style type="text/css">
	.st0{fill:#71C09F;}
	.st1{fill:#EA746C;}
</style>
<g>
	<path class="st0" d="M144.33,65.03c-0.64,0.87-0.63,1.97-1.02,2.93c-2.9,7.22-8.44,10.88-15.99,11.62
		c-6.59,0.64-13.21,0.26-19.81,0.28c-20.09,0.05-40.18,0.02-60.27,0.02c-2.06,0-3.95-0.39-4.97-2.42c-1.46-2.92,0.31-6.03,3.64-6.36
		c1.26-0.13,2.54-0.09,3.8-0.09c20.09-0.01,40.18-0.01,60.27-0.04c4.86-0.01,9.72-0.12,14.59-0.17c2.48-0.03,4.81-0.64,6.96-1.87
		c5.15-2.95,5.4-9.12,0.47-12.43c-3.1-2.09-6.72-3.05-10.15-4.41c-2.21-0.88-4.44-1.73-6.46-2.99c-5.17-3.22-8.29-7.77-8.06-13.97
		c0.25-6.64,3.35-11.83,9.3-15.02c5.7-3.06,11.66-2.97,17.66-0.89c2.08,0.72,3.29,2.8,2.95,4.71c-0.43,2.41-2.01,3.73-4.56,3.71
		c-2.64-0.01-5.21-0.78-7.88-0.72c-4.86,0.11-8.58,3.92-8.47,8.78c0.07,3.03,1.94,4.81,4.36,6.13c3.3,1.8,6.93,2.84,10.42,4.2
		c3.99,1.56,7.64,3.59,10.32,7.07c1.44,1.87,2.07,4.09,2.9,6.23C144.33,61.22,144.33,63.13,144.33,65.03z"/>
	<path class="st0" d="M78.42,17.76c12.66-0.47,23.89,10.62,23.82,23.81c-0.06,12-9.91,23.75-23.99,23.61
		c-13.49-0.14-24.19-10.01-24.23-23.85C53.98,27.35,65.61,17.49,78.42,17.76z M63.07,41.39c0.57,7.98,6.47,14.94,15.16,15.01
		c8.22,0.06,15.01-6.77,15.01-15.03c0.01-8.29-6.72-15.07-15.03-14.98C69.24,26.5,63.67,33.49,63.07,41.39z"/>
	<path class="st0" d="M37.81,46.65c0-6.86-0.01-13.73,0.01-20.59c0-1.16,0.08-2.33,0.24-3.47c0.34-2.43,2.09-4.03,4.34-4.07
		c2.12-0.03,3.72,1.36,4.26,3.74c0.13,0.56,0.23,1.14,0.23,1.72c0.02,11.67,0.02,23.34,0.01,35.01c0,2.02-0.6,3.75-2.61,4.68
		c-2.07,0.96-4.07,0.4-5.89-1.73c-2.8-3.3-5.55-6.65-8.33-9.97c-4.14-4.94-8.29-9.87-12.45-14.78c-0.31-0.37-0.57-1.08-1.19-0.84
		c-0.62,0.24-0.32,0.93-0.32,1.42c-0.02,6.55-0.01,13.1-0.01,19.65c0,1.06-0.01,2.11-0.25,3.15c-0.57,2.51-2.22,3.7-4.86,3.47
		c-2.25-0.19-3.74-1.84-3.74-4.3c0-11.94,0.03-23.87,0.06-35.81c0-2.14,1.19-4.32,2.79-4.74c2.06-0.54,3.93,0.1,5.31,1.69
		c4.33,4.99,8.58,10.03,12.85,15.07c3.06,3.61,6.11,7.23,9.16,10.85C37.55,46.75,37.68,46.7,37.81,46.65z"/>
	<path class="st0" d="M26.05,132.2c-5.07,0.25-9.72-0.47-14.01-2.83c-2.1-1.15-4.01-2.56-5.38-4.57c-1.51-2.21-1.28-4.41,0.57-5.95
		c2.02-1.67,4.13-1.59,6.09,0.27c4.59,4.36,10.07,5.21,16.04,4.1c1.55-0.29,3.11-0.61,4.61-1.11c3-1.01,4.69-3.17,4.98-6.31
		c0.33-3.59-0.92-5.75-4.05-7.33c-1.99-1.01-4.15-1.57-6.29-2.12c-4.26-1.09-8.38-2.58-12.41-4.29
		C4.83,97.22,2.42,83.34,11.49,75.18c0.31-0.28,0.63-0.56,0.98-0.8c2.22-1.54,4.84-1.42,6.36,0.27c1.59,1.77,1.37,4.35-0.54,6.43
		c-0.43,0.47-0.9,0.89-1.31,1.38c-3.36,3.94-2.44,8.87,2.13,11.32c2.06,1.1,4.32,1.67,6.55,2.32c4.82,1.4,9.65,2.81,14.1,5.16
		c5.49,2.9,8.35,7.66,8.29,13.77c-0.07,6.87-3.47,11.94-9.73,14.91C34.37,131.81,30.18,132.55,26.05,132.2z"/>
	<path class="st0" d="M53.56,127.91c-0.05-1.07,0.4-2.14,0.96-3.17c2.69-4.97,5.2-10.05,8.12-14.87c4.07-6.72,7.59-13.74,11.41-20.6
		c0.05-0.09,0.11-0.18,0.16-0.27c2.61-4.45,6.48-4.39,9.04,0.18c2.84,5.07,5.63,10.16,8.42,15.26c3.54,6.49,7.06,12.99,10.58,19.49
		c0.3,0.56,0.6,1.12,0.86,1.69c1.12,2.47,0.74,4.26-1.15,5.41c-2.42,1.48-4.53,1.28-6.17-0.88c-2.08-2.74-3.48-5.91-5.14-8.91
		c-3.58-6.47-7.08-12.98-10.61-19.47c-0.18-0.32-0.39-0.63-0.55-0.96c-0.48-0.99-0.85-1.2-1.48-0.03
		c-4.5,8.31-8.98,16.64-13.61,24.87c-1.04,1.85-2.06,3.79-3.6,5.32c-1.34,1.33-3.01,1.65-4.66,0.89
		C54.53,131.11,53.52,129.92,53.56,127.91z"/>
	<path class="st0" d="M78.76,117.99c3.85-0.01,7.05,3.18,7.09,7.06c0.04,3.8-3.25,7.09-7.07,7.09c-3.89,0-7.08-3.2-7.06-7.07
		C71.74,121.15,74.88,118,78.76,117.99z"/>
	<path class="st1" d="M36.81,75.35c0.03,3.73-2.89,6.71-6.55,6.69c-3.57-0.02-6.53-3-6.55-6.58c-0.02-3.65,2.81-6.49,6.52-6.53
		C33.98,68.89,36.78,71.61,36.81,75.35z"/>
	<path class="st0" d="M78.34,48.63c-4.03,0.02-7.32-3.17-7.36-7.13c-0.04-4.12,3.02-7.22,7.15-7.26c4.26-0.04,7.44,3,7.44,7.14
		C85.58,45.4,82.38,48.61,78.34,48.63z"/>
</g>
</svg>
